<?xml version="1.0" standalone="no"?>
<!DOCTYPE svg PUBLIC "-//W3C//DTD SVG 20010904//EN"
 "http://www.w3.org/TR/2001/REC-SVG-20010904/DTD/svg10.dtd">
<svg version="1.0" xmlns="http://www.w3.org/2000/svg"
 width="1536.000000pt" height="1024.000000pt" viewBox="0 0 1536.000000 1024.000000"
 preserveAspectRatio="xMidYMid meet">

<g transform="translate(0.000000,1024.000000) scale(0.100000,-0.100000)"
fill="#000000" stroke="none">
<path d="M8010 9076 c-57 -13 -488 -138 -1050 -303 -522 -153 -716 -210 -1040
-303 -699 -202 -670 -191 -711 -271 -51 -100 -25 -216 63 -279 23 -17 251
-134 504 -260 l461 -228 -18 -74 c-10 -40 -19 -81 -19 -90 0 -11 -19 -27 -51
-43 -216 -110 -492 -337 -656 -540 -255 -315 -395 -662 -441 -1090 l-18 -160
-33 95 c-43 124 -196 511 -228 576 -31 63 -84 100 -159 110 -219 27 -565 -144
-644 -319 -22 -47 -25 -113 -9 -172 12 -44 87 -212 256 -575 60 -129 136 -294
167 -367 l58 -132 -75 -73 c-56 -55 -83 -91 -110 -148 -149 -314 -33 -764 258
-997 133 -107 225 -138 389 -131 105 5 126 10 228 52 13 6 26 -11 63 -83 53
-103 43 -93 335 -317 246 -189 285 -216 312 -212 57 8 85 119 95 375 l6 172
46 -44 c50 -46 100 -85 200 -155 63 -44 63 -45 58 -85 -9 -64 -43 -130 -136
-269 l-86 -130 0 -72 c0 -64 3 -77 30 -116 162 -230 751 -111 1197 242 l46 36
152 13 c84 6 164 14 179 17 23 5 26 2 27 -21 2 -33 37 -71 78 -85 17 -5 148
-28 291 -50 298 -45 477 -74 587 -93 73 -13 80 -17 145 -76 75 -70 203 -138
313 -167 92 -25 327 -26 429 -1 132 32 271 107 385 208 95 84 224 285 242 378
4 17 11 35 18 39 6 5 67 28 136 52 69 23 148 53 176 65 l50 22 347 697 c191
384 347 706 347 716 0 28 -36 66 -79 83 l-40 16 6 55 c7 70 -9 98 -72 122
l-47 17 7 44 c6 39 3 46 -24 73 -25 26 -37 30 -84 30 -216 0 -590 -135 -841
-303 -55 -37 -101 -66 -102 -64 -2 2 8 39 22 82 72 224 105 515 86 762 -34
449 -187 846 -477 1230 -46 61 -63 92 -60 107 5 21 45 351 45 372 0 6 80 40
178 74 97 35 249 89 337 120 l160 57 3 -130 3 -130 -59 -53 c-84 -75 -107
-131 -106 -254 0 -111 18 -163 84 -234 l40 -44 -15 -88 c-26 -145 -30 -340
-11 -479 31 -221 77 -359 135 -408 45 -38 100 -49 215 -45 85 2 106 7 132 25
26 18 39 21 86 16 72 -7 130 12 211 70 85 61 144 127 152 171 8 40 14 29 -114
217 -91 135 -183 315 -231 451 l-30 87 40 53 c100 131 91 312 -22 434 -24 26
-60 57 -80 71 l-38 23 0 190 0 189 48 24 c30 15 58 39 77 68 26 39 30 53 30
115 0 122 -33 155 -280 284 -77 40 -167 87 -200 105 -33 18 -323 169 -645 335
-322 166 -727 376 -900 466 -481 249 -520 267 -604 270 -39 2 -96 -2 -126 -10z
m2480 -1852 l0 -154 -70 0 -71 0 3 136 3 136 60 23 c33 12 63 21 68 18 4 -2 7
-74 7 -159z m-2765 90 c987 -116 1741 -679 2011 -1501 39 -119 89 -342 78
-352 -2 -2 -55 19 -117 47 -63 28 -159 64 -214 82 l-101 31 -11 82 c-50 353
-297 631 -653 737 -104 31 -323 39 -439 15 -177 -35 -316 -109 -445 -235 -75
-73 -150 -180 -185 -265 -21 -51 -26 -56 -49 -51 -87 19 -170 27 -240 24 l-80
-3 -16 55 c-45 154 -115 271 -229 379 -177 168 -381 238 -660 228 -165 -6
-223 -20 -360 -87 -211 -102 -360 -277 -435 -512 l-21 -67 -57 -11 c-31 -6
-90 -20 -131 -31 -40 -11 -76 -18 -78 -15 -11 11 86 271 147 393 306 610 958
1017 1720 1073 146 11 397 3 565 -16z m2797 -376 c49 -14 120 -76 142 -123 25
-51 24 -141 -2 -191 -84 -164 -328 -180 -434 -29 -54 77 -54 197 0 265 42 53
122 90 195 90 33 0 77 -5 99 -12z m-3913 -508 c236 -57 421 -230 493 -460 19
-64 23 -95 22 -210 0 -118 -4 -145 -27 -215 -38 -114 -90 -199 -177 -285 -128
-129 -305 -200 -498 -200 -269 0 -521 160 -637 405 -46 97 -65 184 -65 297 0
324 204 584 524 668 99 26 255 26 365 0z m4026 -155 c52 -132 98 -228 153
-320 61 -103 119 -190 136 -204 9 -7 16 -18 16 -23 0 -22 -127 -118 -177 -132
-15 -5 -27 0 -42 15 -31 33 -146 207 -181 274 -17 33 -34 62 -37 65 -18 18 25
-226 60 -342 l15 -47 -45 -7 c-68 -10 -141 0 -158 22 -20 28 -63 176 -81 284
-13 75 -15 135 -11 280 4 102 9 198 13 213 6 27 8 28 48 20 60 -12 167 -7 206
10 19 8 36 14 36 13 1 -1 23 -55 49 -121z m-1967 34 c124 -31 225 -91 327
-194 151 -151 219 -313 219 -520 -1 -131 -20 -216 -75 -332 -92 -194 -268
-331 -483 -378 -61 -14 -106 -16 -200 -12 -202 8 -340 66 -480 198 -212 201
-282 481 -192 764 37 115 90 201 180 290 186 185 439 251 704 184z m-4036
-267 c15 -15 128 -262 128 -280 0 -4 -24 -8 -53 -10 -67 -3 -180 -34 -263 -72
-81 -37 -197 -113 -224 -147 -11 -14 -22 -24 -23 -22 -9 13 -88 221 -97 256
-14 56 -3 81 62 135 78 66 109 85 188 119 117 49 244 59 282 21z m2888 -291
l55 -17 -3 -62 c-5 -93 16 -247 49 -347 68 -214 237 -409 444 -513 157 -78
366 -114 549 -94 368 40 644 277 741 637 20 74 24 80 46 77 51 -7 270 -85 350
-125 l84 -42 -3 -105 c-7 -233 -51 -471 -128 -687 l-35 -101 -57 38 c-150 99
-360 172 -577 200 -133 17 -359 15 -436 -5 -123 -32 -209 -96 -258 -194 -21
-41 -22 -41 -78 -41 -62 0 -113 -24 -130 -63 -6 -12 -70 -207 -142 -432 -249
-773 -304 -935 -321 -940 -37 -12 -225 -25 -334 -24 l-118 1 -57 -55 c-146
-144 -386 -287 -576 -343 -65 -20 -120 -28 -200 -31 -101 -5 -112 -3 -137 17
-16 12 -28 30 -28 40 0 11 20 48 45 84 54 77 115 197 146 286 15 46 22 91 23
154 l1 90 -42 30 c-22 17 -87 65 -144 106 -119 87 -293 255 -366 354 -101 137
-164 257 -222 425 l-22 63 45 48 c50 54 77 101 100 179 56 190 -43 415 -222
503 -62 31 -73 33 -169 33 l-102 0 -5 30 c-3 17 -11 73 -18 125 -15 116 -17
595 -3 609 14 13 196 60 248 63 l42 3 6 -65 c34 -340 307 -639 666 -730 99
-26 302 -27 406 -4 168 39 288 105 412 229 143 143 214 288 244 497 l16 118
80 -1 c47 0 103 -7 135 -18z m-2681 -155 c17 -41 31 -77 31 -79 0 -2 -27 -8
-61 -11 -160 -18 -337 -92 -436 -181 l-62 -56 -36 71 -36 71 21 29 c79 111
331 226 502 229 l46 1 31 -74z m98 -241 c87 -213 283 -725 277 -725 -1 0 -18
9 -37 20 -58 34 -188 77 -270 90 -87 13 -146 8 -256 -21 -40 -11 -75 -18 -76
-17 -1 2 -51 111 -110 243 l-107 240 61 57 c59 56 154 112 235 138 59 19 177
39 219 37 38 -2 40 -4 64 -62z m574 -602 c166 -85 199 -325 63 -457 -21 -20
-40 -36 -44 -36 -3 0 -14 23 -25 52 -10 28 -38 81 -62 117 -61 90 -67 102 -97
208 -40 139 -39 140 60 142 37 1 65 -6 105 -26z m5310 -93 c-18 -82 -19 -80
52 -80 34 0 67 -4 73 -8 7 -4 9 -23 5 -51 l-6 -43 -160 -57 c-365 -131 -741
-317 -845 -417 -69 -66 -168 -94 -264 -74 -48 10 -61 18 -96 60 -47 56 -114
88 -351 165 -214 70 -686 185 -759 185 -24 0 -24 2 -4 43 51 100 112 122 349
122 135 -1 193 -5 280 -23 250 -50 444 -139 582 -266 39 -36 76 -66 81 -66 6
0 28 21 48 46 43 52 185 173 273 233 138 94 337 187 506 236 86 25 236 55 243
49 2 -1 -1 -26 -7 -54z m-5788 -87 c154 -61 276 -164 334 -281 40 -82 45 -188
10 -252 -29 -55 -90 -95 -170 -111 -48 -10 -72 -9 -148 6 -71 13 -93 14 -104
5 -24 -20 -18 -43 40 -152 56 -106 85 -195 85 -259 0 -34 -4 -39 -47 -60 -68
-33 -179 -37 -255 -10 -227 79 -409 347 -425 623 -10 172 34 306 133 406 91
90 187 123 354 118 101 -2 125 -7 193 -33z m5997 -196 c0 -2 -144 -290 -320
-640 l-321 -636 -119 -40 -120 -40 0 38 c0 143 -102 313 -217 362 -26 11 -49
22 -51 24 -3 2 39 116 93 252 78 198 104 254 129 276 70 63 486 254 788 362
122 43 138 48 138 42z m-2465 -177 c299 -58 606 -145 808 -230 60 -25 77 -36
74 -49 -3 -9 -49 -129 -103 -267 l-97 -250 -51 18 c-135 46 -268 -3 -311 -116
-17 -43 -18 -44 -70 -48 -105 -9 -166 -77 -169 -188 -2 -47 -7 -63 -30 -91
-16 -19 -36 -50 -43 -68 -22 -51 -19 -155 5 -226 11 -33 19 -61 18 -63 -2 -1
-36 5 -77 13 -106 23 -419 73 -593 95 -81 10 -150 21 -152 23 -3 2 84 276 192
608 107 332 214 660 236 729 22 69 45 131 51 139 16 19 108 10 312 -29z
m-2925 -365 c23 -49 69 -135 101 -191 33 -55 59 -106 59 -112 0 -8 -18 -12
-48 -12 -26 0 -53 -5 -59 -11 -6 -6 -44 -14 -84 -18 -64 -6 -87 -14 -169 -60
-52 -29 -103 -60 -112 -69 -17 -14 -20 -9 -54 64 -20 43 -62 143 -94 220 l-58
141 72 6 c86 7 140 25 211 72 64 43 112 103 128 162 l11 43 27 -73 c14 -39 45
-112 69 -162z m4111 -32 c47 2 95 10 108 16 12 7 24 11 27 9 2 -2 -29 -87 -69
-188 l-73 -184 -63 -22 c-74 -26 -129 -74 -162 -144 l-22 -47 -66 45 c-36 25
-68 47 -70 48 -2 2 35 103 82 226 47 123 90 235 96 249 l10 26 58 -19 c46 -16
75 -19 144 -15z m-3964 -368 c28 -20 43 -92 43 -209 l0 -94 -64 5 c-82 7 -107
0 -145 -37 l-30 -31 -105 81 c-99 76 -146 122 -146 141 0 5 19 21 43 36 23 15
68 44 101 65 70 46 99 54 132 39 20 -9 31 -8 52 4 35 19 92 19 119 0z m4108
-142 c59 -41 97 -124 103 -221 13 -235 -146 -495 -382 -626 -140 -78 -342
-107 -500 -72 -227 51 -420 239 -421 412 0 38 5 67 14 78 13 16 17 14 50 -18
36 -34 128 -96 143 -96 16 0 7 23 -26 63 -56 69 -90 144 -94 215 -4 55 -2 66
19 88 41 44 75 34 150 -47 66 -71 114 -109 137 -109 19 0 15 14 -23 70 -91
135 -76 280 28 280 73 0 220 -75 352 -181 89 -71 105 -79 149 -79 l36 0 -6 68
c-4 43 -2 82 5 104 14 42 57 85 97 98 49 16 125 3 169 -27z"/>
<path d="M10398 6923 c12 -2 30 -2 40 0 9 3 -1 5 -23 4 -22 0 -30 -2 -17 -4z"/>
<path d="M6577 6089 c-93 -22 -182 -99 -230 -200 -35 -74 -46 -128 -47 -219 0
-163 65 -292 176 -346 165 -81 358 49 418 283 9 34 16 73 16 88 l0 26 -31 -22
c-45 -32 -109 -37 -151 -11 -44 27 -63 64 -62 118 1 54 25 91 71 111 44 18 88
11 137 -22 20 -13 36 -22 36 -19 0 2 -13 31 -30 63 -38 75 -94 124 -169 145
-63 18 -78 18 -134 5z"/>
<path d="M8330 5958 c-230 -88 -315 -468 -157 -701 67 -99 196 -143 304 -104
131 49 231 208 247 396 l6 65 -22 -22 c-51 -47 -126 -55 -179 -19 -59 39 -75
105 -43 172 37 79 129 91 212 29 17 -14 32 -22 32 -18 0 3 -14 33 -32 66 -37
70 -101 130 -156 146 -60 18 -150 14 -212 -10z"/>
<path d="M4492 6042 c2 -4 27 -72 57 -150 40 -104 59 -141 69 -137 7 3 38 8
68 11 30 4 54 9 54 11 0 9 -72 178 -96 224 l-24 49 -66 0 c-36 0 -64 -4 -62
-8z"/>
<path d="M4152 5877 c-32 -33 -42 -50 -42 -76 0 -32 72 -237 90 -255 6 -6 19
0 35 16 14 14 41 36 60 49 41 28 40 31 -10 149 -20 47 -44 102 -52 123 -9 20
-21 37 -27 37 -7 0 -31 -19 -54 -43z"/>
<path d="M6893 4795 c-50 -35 -47 -156 6 -313 76 -220 224 -358 415 -384 62
-9 83 -8 155 11 100 25 164 63 232 140 81 90 159 278 162 390 2 40 -3 54 -23
76 -25 27 -25 27 -115 19 -129 -13 -356 -10 -453 5 -46 7 -136 25 -200 42
-135 33 -150 34 -179 14z m706 -408 c30 -12 56 -27 58 -33 6 -19 -89 -106
-144 -131 -105 -48 -222 -38 -311 27 -48 34 -51 48 -19 78 91 85 282 113 416
59z"/>
<path d="M10824 4226 c-199 -75 -361 -144 -575 -248 l-187 -90 -40 -107 c-22
-58 -60 -156 -85 -217 l-44 -111 33 -12 c19 -7 56 -30 84 -52 27 -21 53 -40
57 -42 4 -1 8 -6 8 -12 0 -5 13 -34 28 -62 31 -60 57 -151 57 -200 0 -18 1
-33 3 -33 13 0 196 64 209 73 13 9 606 1171 595 1166 -1 0 -65 -24 -143 -53z
m-829 -797 c11 -17 2 -18 -19 -3 -17 12 -17 14 -4 14 9 0 20 -5 23 -11z m434
-183 c-8 -7 -262 -76 -267 -72 -2 3 16 10 40 17 23 6 77 22 118 35 68 21 120
30 109 20z"/>
<path d="M8307 4133 c-11 -20 -129 -385 -125 -388 2 -2 33 83 68 190 l64 195
36 0 c19 0 89 -11 155 -25 66 -14 129 -24 140 -24 11 1 -41 14 -115 29 -136
29 -215 36 -223 23z"/>
<path d="M8705 4069 c22 -6 110 -28 195 -49 171 -43 439 -124 483 -146 15 -8
27 -11 27 -6 0 25 -552 186 -705 206 l-40 5 40 -10z"/>
<path d="M8100 3508 c-34 -106 -84 -262 -111 -347 -27 -85 -48 -158 -47 -163
2 -4 54 150 116 344 62 193 110 353 108 355 -2 3 -32 -82 -66 -189z"/>
<path d="M7926 2954 c-4 -14 -5 -28 -3 -31 3 -2 8 8 11 23 4 14 5 28 3 31 -3
2 -8 -8 -11 -23z"/>
<path d="M7866 2837 c-14 -18 -26 -40 -26 -48 0 -10 -2 -11 -8 -2 -5 8 -12 8
-26 -3 -11 -7 -17 -16 -14 -19 3 -3 115 -21 249 -41 222 -32 490 -77 530 -89
13 -5 13 4 -5 59 -12 36 -24 67 -27 71 -18 17 -411 86 -570 100 l-77 7 -26
-35z"/>
<path d="M9596 3731 c-14 -21 -125 -295 -122 -298 2 -2 31 60 64 139 38 89 66
144 76 146 9 2 14 8 11 13 -8 12 -22 12 -29 0z"/>
<path d="M9703 3733 c9 -2 25 -2 35 0 9 3 1 5 -18 5 -19 0 -27 -2 -17 -5z"/>
<path d="M9648 3723 c6 -2 18 -2 25 0 6 3 1 5 -13 5 -14 0 -19 -2 -12 -5z"/>
<path d="M9456 3405 c-9 -26 -7 -32 5 -12 6 10 9 21 6 23 -2 3 -7 -2 -11 -11z"/>
</g>
</svg>
